<svg xmlns="http://www.w3.org/2000/svg" xmlns:xlink="http://www.w3.org/1999/xlink" xmlns:xodm="http://www.corel.com/coreldraw/odm/2003" width="241.445" height="524.372" version="1.1" viewBox="0 0 1084.61 2355.56" xml:space="preserve" style="shape-rendering:geometricPrecision;text-rendering:geometricPrecision;image-rendering:optimizeQuality;fill-rule:evenodd;clip-rule:evenodd"><defs><style type="text/css">.fil0{fill:#2b2a29;fill-rule:nonzero}</style></defs><g id="DESIGNED_x0020_BY_x0020_FREEPIK"><metadata id="CorelCorpID_0Corel-Layer"/><path d="M970.14 0l-118.75 0c-5.42,8.75 -9.77,19.3 -9.77,30.66 0,30.28 -24.68,54.82 -55.14,54.82l-485.93 0c-30.45,0 -55.14,-24.55 -55.14,-54.82 0,-11.36 -3.29,-21.91 -7.39,-30.66l-123.56 0c-63.22,0 -114.47,51.25 -114.47,114.47l0 2126.62c0,63.22 51.25,114.47 114.47,114.47l855.67 0c63.22,0 114.47,-51.25 114.47,-114.47l0 -2126.62c0,-63.22 -51.25,-114.47 -114.47,-114.47z" class="fil0"/></g></svg>