<?xml version="1.0" encoding="UTF-8"?>
<!DOCTYPE svg PUBLIC "-//W3C//DTD SVG 1.1//EN" "http://www.w3.org/Graphics/SVG/1.1/DTD/svg11.dtd">
<!-- Creator: CorelDRAW 2020 (64-Bit) -->
<svg xmlns="http://www.w3.org/2000/svg" xml:space="preserve" width="63.8823mm" height="138.74mm" version="1.1" style="shape-rendering:geometricPrecision; text-rendering:geometricPrecision; image-rendering:optimizeQuality; fill-rule:evenodd; clip-rule:evenodd"
viewBox="0 0 1084.61 2355.56"
 xmlns:xlink="http://www.w3.org/1999/xlink"
 xmlns:xodm="http://www.corel.com/coreldraw/odm/2003">
 <defs>
  <style type="text/css">
   <![CDATA[
    .fil0 {fill:#2B2A29;fill-rule:nonzero}
   ]]>
  </style>
 </defs>
 <g id="DESIGNED_x0020_BY_x0020_FREEPIK">
  <metadata id="CorelCorpID_0Corel-Layer"/>
  <path class="fil0" d="M970.14 0l-118.75 0c-5.42,8.75 -9.77,19.3 -9.77,30.66 0,30.28 -24.68,54.82 -55.14,54.82l-485.93 0c-30.45,0 -55.14,-24.55 -55.14,-54.82 0,-11.36 -3.29,-21.91 -7.39,-30.66l-123.56 0c-63.22,0 -114.47,51.25 -114.47,114.47l0 2126.62c0,63.22 51.25,114.47 114.47,114.47l855.67 0c63.22,0 114.47,-51.25 114.47,-114.47l0 -2126.62c0,-63.22 -51.25,-114.47 -114.47,-114.47z"/>
 </g>
</svg>
